<svg xmlns="http://www.w3.org/2000/svg" viewBox="0 0 1200 1000"><defs><style>.a,.b{fill:#1d1d1b;}.a{stroke:#1d1d1b;stroke-miterlimit:10;stroke-width:2px;}</style></defs><path class="a" d="M236.6,787.68a33,33,0,0,1-10-24.2v-57.1h11.14v57.1a23.11,23.11,0,0,0,46.22,0v-57.1h11.27v57.1a34.32,34.32,0,0,1-58.64,24.2Z"/><path class="a" d="M333.26,796.26H320.84l44.43-91.42,44.17,91.42H397L385.75,773h-41.1ZM350,761.69h30.22l-15-31.11Z"/><path class="a" d="M492.53,706.38h11.14v91.41l-57.49-64v62.48H435v-91.8l57.49,64Z"/><path class="a" d="M601.09,717.65H570.75v78.61H559.61V717.65H529.27V706.38h71.82Z"/><path class="a" d="M636.68,787.68a33,33,0,0,1-10-24.2v-57.1h11.14v57.1a23.11,23.11,0,0,0,46.22,0v-57.1h11.26v57.1a34.32,34.32,0,0,1-58.64,24.2Z"/><path class="a" d="M791.85,753l21.9,43.28H801.2L785.58,765.4,770,796.26H757.29l22-43.28-11.78-23.3L733.6,796.26H720.92l46.61-91.42,18.05,35.72,18-35.72L850,796.26H837.43l-33.8-66.58Z"/><path class="a" d="M880.31,796.26V704.74h10.87v91.52Z"/><path class="a" d="M925.23,769.37a45.79,45.79,0,0,1,0-36.11,45.67,45.67,0,0,1,24.58-24.58A46.29,46.29,0,0,1,967.86,705a44.61,44.61,0,0,1,30.47,11.52l-7.42,8.45a35.09,35.09,0,1,0,0,52.75l7.42,8.45a45.19,45.19,0,0,1-30.47,11.4A45.72,45.72,0,0,1,949.81,794a46.83,46.83,0,0,1-24.58-24.58Z"/><path class="a" d="M1036.36,796.26h-12.42l44.42-91.42,44.17,91.42h-12.41L1088.85,773h-41.1Zm16.77-34.57h30.21l-15-31.11Z"/><path class="b" d="M154.68,701a47.18,47.18,0,0,0-7,93.84v15.84h14V794.81a47.18,47.18,0,0,0-7-93.84Zm7,81.32V768.42h-14v13.87a34.85,34.85,0,1,1,14,0Z"/><circle class="b" cx="154.68" cy="748.15" r="7.78" transform="translate(-608.99 726.8) rotate(-76.72)"/><path class="b" d="M622.72,356.52a53,53,0,0,0-7.87,105.4V479.7h15.74V461.92a53,53,0,0,0-7.87-105.4Zm7.87,91.33V432.27H614.85v15.58a39.14,39.14,0,1,1,15.74,0Z"/><circle class="b" cx="622.72" cy="409.51" r="8.73" transform="translate(81.09 921.48) rotate(-76.72)"/><path class="b" d="M763.9,442.09a7.71,7.71,0,0,1-4.31,6.92A147.05,147.05,0,0,1,620.83,558.6a7.72,7.72,0,0,1-12.51-.24,7.61,7.61,0,0,1-1.38-4.4,7.72,7.72,0,0,1,13.87-4.68,137.73,137.73,0,0,0,129.62-102,7.73,7.73,0,1,1,13.47-5.16Z"/><path class="b" d="M761.72,498.72a7.7,7.7,0,0,1-7.18,7.69,166.55,166.55,0,0,1-125.82,71.53,7.71,7.71,0,0,1-12.4.37,7.59,7.59,0,0,1-1.66-4.77,7.73,7.73,0,0,1,13.58-5,157.07,157.07,0,0,0,118.43-67.33,7.32,7.32,0,0,1-.41-2.45,7.71,7.71,0,0,1,6.86-7.66A5,5,0,0,1,754,491a7.71,7.71,0,0,1,7.21,5A7.39,7.39,0,0,1,761.72,498.72Z"/><path class="b" d="M751.89,542.15a7.73,7.73,0,0,1-9.09,7.6,186.6,186.6,0,0,1-223.29,20.7,7.34,7.34,0,0,1-2.21.32,7.7,7.7,0,0,1-7.66-6.88,4.62,4.62,0,0,1-.06-.84,7.72,7.72,0,0,1,4.6-7,7.56,7.56,0,0,1,3.12-.67,7.72,7.72,0,0,1,7.72,7.72.45.45,0,0,1,0,.12,177.51,177.51,0,0,0,211.5-20,6,6,0,0,1-.08-1,7.72,7.72,0,0,1,7.74-7.72,6.36,6.36,0,0,1,1.24.11,7.66,7.66,0,0,1,6.38,6.46A7.23,7.23,0,0,1,751.89,542.15Z"/><path class="b" d="M735.81,322.74a7.59,7.59,0,0,1-.16,1.59,7.69,7.69,0,0,1-7.06,6.09,2.11,2.11,0,0,1-.5,0,7.73,7.73,0,0,1-7.72-7.72,8,8,0,0,1,.3-2.15A137.69,137.69,0,0,0,495.82,476.27a7.72,7.72,0,0,1-1.06,15.36,5.65,5.65,0,0,1-.71-.05,7.71,7.71,0,0,1-7-7.68,7.83,7.83,0,0,1,.64-3.11A147,147,0,0,1,728.15,315,7.73,7.73,0,0,1,735.81,322.74Z"/><path class="b" d="M545.62,552.91a7.72,7.72,0,0,1-15.4.82l0,0A166.58,166.58,0,0,1,451,421.26a7.71,7.71,0,0,1-.25-12.45,7.68,7.68,0,0,1,9.46.06,7.73,7.73,0,0,1,.24,11.94h0a157.12,157.12,0,0,0,74.72,124.86,7.43,7.43,0,0,1,2.72-.51,7.71,7.71,0,0,1,7.59,6.32A7.43,7.43,0,0,1,545.62,552.91Z"/><path class="b" d="M466.19,287.79a7.72,7.72,0,0,1-7.27,7.7,196.61,196.61,0,0,0-9,218.89,7.72,7.72,0,0,1,6.95,7.67,7.71,7.71,0,0,1-7.73,7.72,2.17,2.17,0,0,1-.36,0,7.7,7.7,0,0,1-7.36-7.7,7.28,7.28,0,0,1,.51-2.73,206,206,0,0,1,9.24-229.11,7.73,7.73,0,0,1,7.34-10.15,5.46,5.46,0,0,1,.56,0,7.7,7.7,0,0,1,7,6.24A6.92,6.92,0,0,1,466.19,287.79Z"/><path class="b" d="M715.39,232a7.71,7.71,0,0,1-4.25,6.89,7.5,7.5,0,0,1-3.47.83,7.73,7.73,0,0,1-7.61-6.39A197,197,0,0,0,537.62,232a7.73,7.73,0,0,1-7.54,6,7.54,7.54,0,0,1-3.36-.77,7.71,7.71,0,0,1-4.37-7,6.92,6.92,0,0,1,.14-1.45,7.74,7.74,0,0,1,11.16-5.4A206.41,206.41,0,0,1,704.43,225a7.5,7.5,0,0,1,3.24-.72,7.73,7.73,0,0,1,7.56,6.15A8.14,8.14,0,0,1,715.39,232Z"/><path class="b" d="M785.67,392.47a7.73,7.73,0,1,1-13-5.65,157.23,157.23,0,0,0-254.21-97.35.37.37,0,0,1,0,.11,7.71,7.71,0,0,1-7.72,7.72,6.27,6.27,0,0,1-1.14-.1,7.68,7.68,0,0,1-6.54-6.81,7.32,7.32,0,0,1,0-.81,7.75,7.75,0,0,1,9.54-7.51A166.71,166.71,0,0,1,782.12,386,7.71,7.71,0,0,1,785.67,392.47Z"/><path class="b" d="M742.63,272.33a6.9,6.9,0,0,1-.08,1,7.7,7.7,0,0,1-6.25,6.58,7.22,7.22,0,0,1-1.4.13,7.72,7.72,0,0,1-7.72-7.73v-.09A177.52,177.52,0,0,0,444.3,450.78a7.72,7.72,0,0,1-2.92,14.86,7.41,7.41,0,0,1-2.71-.5,7.71,7.71,0,0,1-3.2-12.2,186.68,186.68,0,0,1-4.59-41.29c0-103,83.52-186.52,186.53-186.52A185.75,185.75,0,0,1,732.62,265a7.5,7.5,0,0,1,2.28-.35A7.73,7.73,0,0,1,742.63,272.33Z"/><path class="b" d="M784.88,260.51a7,7,0,0,1-.13,1.4,7.69,7.69,0,0,1-6.57,6.25,6.8,6.8,0,0,1-1,.08,7.71,7.71,0,0,1-7.72-7.73,7.46,7.46,0,0,1,.13-1.43,214.73,214.73,0,0,0-152.16-62.91c-119,0-215.48,96.48-215.48,215.48a214.64,214.64,0,0,0,47.21,134.62,2.81,2.81,0,0,1,.5,0,7.74,7.74,0,0,1,7.74,7.73,7.25,7.25,0,0,1-.21,1.76,7.69,7.69,0,0,1-6.87,5.92,4.87,4.87,0,0,1-.66,0,7.72,7.72,0,0,1-7.72-7.72,7.57,7.57,0,0,1,.24-1.91,223.57,223.57,0,0,1-49.3-140.4c0-124,100.54-224.55,224.55-224.55a223.81,223.81,0,0,1,158.77,65.77h0a6.14,6.14,0,0,1,1-.08A7.73,7.73,0,0,1,784.88,260.51Z"/><path class="b" d="M823.3,411.65c0,113.71-92.18,205.9-205.89,205.9a207.18,207.18,0,0,1-36.51-3.22A7.71,7.71,0,0,1,569.57,612h0a7.73,7.73,0,1,1,13.87-6.74,198.17,198.17,0,0,0,34,2.93c108.52,0,196.49-88,196.49-196.5a196.46,196.46,0,0,0-4.11-40.11,7.71,7.71,0,0,1,2.47-15,7.79,7.79,0,0,1,3.87,1h0a7.7,7.7,0,0,1,3.85,6.68,7.61,7.61,0,0,1-1.23,4.16h0A206.77,206.77,0,0,1,823.3,411.65Z"/><path class="b" d="M827.17,498.72a7.71,7.71,0,0,1-6,7.54,224.78,224.78,0,0,1-286.86,114,7.52,7.52,0,0,1-4.08,1.18,7.71,7.71,0,0,1-7.57-6.2,7.54,7.54,0,0,1-.15-1.52,7.72,7.72,0,0,1,15.21-1.87A215.7,215.7,0,0,0,812.8,502.65a7.6,7.6,0,0,1-1.08-3.93,7.69,7.69,0,0,1,6-7.52,7.41,7.41,0,0,1,1.71-.2,7.68,7.68,0,0,1,6.63,3.77A7.52,7.52,0,0,1,827.17,498.72Z"/></svg>