<svg xmlns="http://www.w3.org/2000/svg" xmlns:xlink="http://www.w3.org/1999/xlink" width="54" zoomAndPan="magnify" viewBox="0 0 40.5 40.5" height="54" preserveAspectRatio="xMidYMid meet" version="1.2"><g id="3d63813c3d"><path style="fill-rule:nonzero;fill:#1d1d1b;fill-opacity:1;stroke-width:2;stroke-linecap:butt;stroke-linejoin:miter;stroke:#1d1d1b;stroke-opacity:1;stroke-miterlimit:10;" d="M 236.574587 787.753185 C 229.863962 781.112936 226.412783 772.910276 226.604515 763.535807 L 226.604515 706.312488 L 237.72498 706.312488 L 237.72498 763.535807 C 237.72498 769.785453 240.025765 775.253893 244.435605 779.745826 C 249.037176 784.237759 254.405676 786.581376 260.924569 786.581376 C 267.25173 786.581376 272.62023 784.237759 277.221801 779.745826 C 281.631641 775.253893 283.932426 769.785453 283.932426 763.535807 L 283.932426 706.312488 L 295.244623 706.312488 L 295.244623 763.535807 C 295.244623 778.769319 288.150534 789.315596 273.962355 795.174639 C 259.774176 801.033682 247.311587 798.494763 236.574587 787.753185 Z M 236.574587 787.753185 " transform="matrix(0.0203735,0,0,0.0200011,7.906716,9.923731)"/><path style="fill-rule:nonzero;fill:#1d1d1b;fill-opacity:1;stroke-width:2;stroke-linecap:butt;stroke-linejoin:miter;stroke:#1d1d1b;stroke-opacity:1;stroke-miterlimit:10;" d="M 333.207587 796.346448 L 320.744998 796.346448 L 365.226856 704.750077 L 409.516981 796.346448 L 397.054391 796.346448 L 385.742195 772.910276 L 344.711516 772.910276 Z M 350.080016 761.778094 L 380.181963 761.778094 L 365.226856 730.529865 Z M 350.080016 761.778094 " transform="matrix(0.0203735,0,0,0.0200011,7.906716,9.923731)"/><path style="fill-rule:nonzero;fill:#1d1d1b;fill-opacity:1;stroke-width:2;stroke-linecap:butt;stroke-linejoin:miter;stroke:#1d1d1b;stroke-opacity:1;stroke-miterlimit:10;" d="M 492.536999 706.312488 L 503.657464 706.312488 L 503.657464 797.713558 L 446.13782 733.84999 L 446.13782 796.346448 L 435.017356 796.346448 L 435.017356 704.554775 L 492.536999 768.418343 Z M 492.536999 706.312488 " transform="matrix(0.0203735,0,0,0.0200011,7.906716,9.923731)"/><path style="fill-rule:nonzero;fill:#1d1d1b;fill-opacity:1;stroke-width:2;stroke-linecap:butt;stroke-linejoin:miter;stroke:#1d1d1b;stroke-opacity:1;stroke-miterlimit:10;" d="M 601.057393 717.639971 L 570.763714 717.639971 L 570.763714 796.346448 L 559.64325 796.346448 L 559.64325 717.639971 L 529.349571 717.639971 L 529.349571 706.312488 L 601.057393 706.312488 Z M 601.057393 717.639971 " transform="matrix(0.0203735,0,0,0.0200011,7.906716,9.923731)"/><path style="fill-rule:nonzero;fill:#1d1d1b;fill-opacity:1;stroke-width:2;stroke-linecap:butt;stroke-linejoin:miter;stroke:#1d1d1b;stroke-opacity:1;stroke-miterlimit:10;" d="M 636.719572 787.753185 C 629.817214 781.112936 626.557768 772.910276 626.7495 763.535807 L 626.7495 706.312488 L 637.869965 706.312488 L 637.869965 763.535807 C 637.869965 769.785453 640.17075 775.253893 644.58059 779.745826 C 649.182161 784.237759 654.550661 786.581376 660.877822 786.581376 C 667.396715 786.581376 672.765215 784.237759 677.366786 779.745826 C 681.776626 775.253893 684.077411 769.785453 684.077411 763.535807 L 684.077411 706.312488 L 695.389608 706.312488 L 695.389608 763.535807 C 695.197876 778.769319 688.295518 789.315596 674.10734 795.174639 C 659.919161 801.033682 647.456572 798.494763 636.719572 787.753185 Z M 636.719572 787.753185 " transform="matrix(0.0203735,0,0,0.0200011,7.906716,9.923731)"/><path style="fill-rule:nonzero;fill:#1d1d1b;fill-opacity:1;stroke-width:2;stroke-linecap:butt;stroke-linejoin:miter;stroke:#1d1d1b;stroke-opacity:1;stroke-miterlimit:10;" d="M 791.830876 752.98953 L 813.688341 796.346448 L 801.225751 796.346448 L 785.503716 765.488822 L 769.973412 796.346448 L 757.31909 796.346448 L 779.368287 752.98953 L 767.480894 729.74866 L 733.544304 796.346448 L 720.889983 796.346448 L 767.480894 704.750077 L 785.503716 740.490238 L 803.526537 704.750077 L 849.925716 796.346448 L 837.463127 796.346448 L 803.718269 729.74866 Z M 791.830876 752.98953 " transform="matrix(0.0203735,0,0,0.0200011,7.906716,9.923731)"/><path style="fill-rule:nonzero;fill:#1d1d1b;fill-opacity:1;stroke-width:2;stroke-linecap:butt;stroke-linejoin:miter;stroke:#1d1d1b;stroke-opacity:1;stroke-miterlimit:10;" d="M 880.219395 704.750077 L 891.148127 704.750077 L 891.148127 796.346448 L 880.219395 796.346448 Z M 880.219395 704.750077 " transform="matrix(0.0203735,0,0,0.0200011,7.906716,9.923731)"/><path style="fill-rule:nonzero;fill:#1d1d1b;fill-opacity:1;stroke-width:2;stroke-linecap:butt;stroke-linejoin:miter;stroke:#1d1d1b;stroke-opacity:1;stroke-miterlimit:10;" d="M 925.276449 769.39485 C 920.099681 757.286161 920.099681 745.372774 925.276449 733.264085 C 930.069752 721.741301 938.314234 713.538641 949.818163 708.656105 C 955.570127 706.312488 961.513824 704.945378 967.840985 704.945378 C 979.536645 704.945378 989.698449 708.656105 998.326396 716.468162 L 990.848842 725.061425 C 983.754753 718.81178 975.702003 715.882258 966.307127 716.272861 C 956.912252 716.663464 948.859502 720.374191 942.340609 727.01444 C 936.013449 733.84999 932.754002 741.857348 932.754002 751.427119 C 932.754002 760.801587 936.013449 768.808946 942.340609 775.644496 C 948.859502 782.480046 956.912252 785.995472 966.307127 786.386075 C 975.702003 786.776677 983.754753 783.847156 990.848842 777.792812 L 998.326396 786.190773 C 989.698449 793.807529 979.536645 797.713558 967.840985 797.518256 C 961.513824 797.713558 955.570127 796.346448 949.818163 794.00283 C 938.314234 789.120295 930.069752 780.917635 925.276449 769.39485 Z M 925.276449 769.39485 " transform="matrix(0.0203735,0,0,0.0200011,7.906716,9.923731)"/><path style="fill-rule:nonzero;fill:#1d1d1b;fill-opacity:1;stroke-width:2;stroke-linecap:butt;stroke-linejoin:miter;stroke:#1d1d1b;stroke-opacity:1;stroke-miterlimit:10;" d="M 1036.28936 796.346448 L 1024.018503 796.346448 L 1068.308628 704.750077 L 1112.598753 796.346448 L 1100.136164 796.346448 L 1088.823968 772.910276 L 1047.793289 772.910276 Z M 1053.161789 761.778094 L 1083.263735 761.778094 L 1068.308628 730.529865 Z M 1053.161789 761.778094 " transform="matrix(0.0203735,0,0,0.0200011,7.906716,9.923731)"/><path style=" stroke:none;fill-rule:nonzero;fill:#1d1d1b;fill-opacity:1;" d="M 11.058594 23.945312 C 10.804688 23.945312 10.589844 24.027344 10.402344 24.195312 C 10.21875 24.363281 10.117188 24.570312 10.097656 24.816406 C 10.082031 25.0625 10.148438 25.285156 10.308594 25.476562 C 10.464844 25.671875 10.667969 25.785156 10.914062 25.820312 L 10.914062 26.136719 L 11.199219 26.136719 L 11.199219 25.820312 C 11.449219 25.785156 11.652344 25.667969 11.808594 25.476562 C 11.964844 25.285156 12.035156 25.0625 12.015625 24.816406 C 12 24.570312 11.898438 24.363281 11.710938 24.195312 C 11.527344 24.027344 11.308594 23.945312 11.058594 23.945312 Z M 11.199219 25.570312 L 11.199219 25.292969 L 10.914062 25.292969 L 10.914062 25.570312 C 10.800781 25.546875 10.695312 25.5 10.605469 25.425781 C 10.515625 25.351562 10.445312 25.257812 10.402344 25.152344 C 10.355469 25.042969 10.339844 24.933594 10.351562 24.816406 C 10.363281 24.703125 10.402344 24.59375 10.46875 24.5 C 10.535156 24.402344 10.621094 24.328125 10.722656 24.273438 C 10.828125 24.21875 10.941406 24.191406 11.058594 24.191406 C 11.175781 24.191406 11.289062 24.21875 11.390625 24.273438 C 11.496094 24.328125 11.582031 24.402344 11.648438 24.5 C 11.714844 24.59375 11.753906 24.703125 11.765625 24.816406 C 11.777344 24.933594 11.761719 25.042969 11.714844 25.152344 C 11.671875 25.257812 11.601562 25.351562 11.511719 25.425781 C 11.421875 25.5 11.316406 25.546875 11.199219 25.570312 Z M 11.199219 25.570312 "/><path style=" stroke:none;fill-rule:nonzero;fill:#1d1d1b;fill-opacity:1;" d="M 11.09375 24.734375 C 11.199219 24.757812 11.238281 24.820312 11.210938 24.921875 C 11.1875 25.023438 11.125 25.0625 11.023438 25.039062 C 10.917969 25.015625 10.878906 24.953125 10.902344 24.851562 C 10.929688 24.75 10.992188 24.710938 11.09375 24.734375 Z M 11.09375 24.734375 "/><path style=" stroke:none;fill-rule:nonzero;fill:#1d1d1b;fill-opacity:1;" d="M 20.59375 17.054688 C 20.3125 17.054688 20.066406 17.148438 19.859375 17.339844 C 19.652344 17.527344 19.539062 17.757812 19.519531 18.035156 C 19.496094 18.3125 19.574219 18.558594 19.75 18.773438 C 19.925781 18.992188 20.152344 19.121094 20.433594 19.164062 L 20.433594 19.519531 L 20.753906 19.519531 L 20.753906 19.164062 C 21.03125 19.121094 21.261719 18.992188 21.4375 18.773438 C 21.613281 18.558594 21.691406 18.3125 21.667969 18.035156 C 21.648438 17.757812 21.535156 17.527344 21.328125 17.339844 C 21.121094 17.148438 20.875 17.054688 20.59375 17.054688 Z M 20.753906 18.882812 L 20.753906 18.570312 L 20.433594 18.570312 L 20.433594 18.882812 C 20.304688 18.855469 20.1875 18.800781 20.085938 18.71875 C 19.980469 18.632812 19.90625 18.53125 19.855469 18.410156 C 19.804688 18.289062 19.785156 18.164062 19.800781 18.035156 C 19.8125 17.90625 19.859375 17.785156 19.929688 17.679688 C 20.003906 17.570312 20.101562 17.484375 20.21875 17.421875 C 20.335938 17.363281 20.460938 17.332031 20.59375 17.332031 C 20.726562 17.332031 20.851562 17.363281 20.96875 17.421875 C 21.085938 17.484375 21.183594 17.570312 21.253906 17.679688 C 21.328125 17.785156 21.375 17.90625 21.386719 18.035156 C 21.402344 18.164062 21.382812 18.289062 21.332031 18.410156 C 21.28125 18.53125 21.203125 18.632812 21.101562 18.71875 C 21 18.800781 20.882812 18.855469 20.753906 18.882812 Z M 20.753906 18.882812 "/><path style=" stroke:none;fill-rule:nonzero;fill:#1d1d1b;fill-opacity:1;" d="M 20.632812 17.945312 C 20.75 17.96875 20.792969 18.039062 20.765625 18.152344 C 20.738281 18.265625 20.667969 18.308594 20.550781 18.285156 C 20.4375 18.257812 20.394531 18.1875 20.421875 18.074219 C 20.449219 17.960938 20.519531 17.917969 20.632812 17.945312 Z M 20.632812 17.945312 "/><path style=" stroke:none;fill-rule:nonzero;fill:#1d1d1b;fill-opacity:1;" d="M 23.46875 18.765625 C 23.46875 18.828125 23.441406 18.875 23.382812 18.90625 C 23.300781 19.214844 23.167969 19.5 22.992188 19.765625 C 22.8125 20.035156 22.597656 20.265625 22.339844 20.464844 C 22.085938 20.660156 21.804688 20.816406 21.5 20.921875 C 21.195312 21.03125 20.878906 21.089844 20.554688 21.097656 C 20.523438 21.136719 20.480469 21.160156 20.425781 21.15625 C 20.371094 21.15625 20.332031 21.136719 20.300781 21.089844 C 20.28125 21.066406 20.273438 21.035156 20.273438 21.003906 C 20.273438 20.929688 20.308594 20.878906 20.378906 20.855469 C 20.449219 20.832031 20.507812 20.851562 20.554688 20.910156 C 20.859375 20.902344 21.152344 20.847656 21.4375 20.746094 C 21.722656 20.648438 21.984375 20.503906 22.21875 20.320312 C 22.457031 20.136719 22.660156 19.921875 22.828125 19.671875 C 22.996094 19.425781 23.117188 19.15625 23.195312 18.871094 C 23.160156 18.828125 23.144531 18.78125 23.160156 18.730469 C 23.171875 18.675781 23.203125 18.640625 23.257812 18.621094 C 23.308594 18.601562 23.355469 18.609375 23.402344 18.640625 C 23.449219 18.667969 23.46875 18.710938 23.46875 18.765625 Z M 23.46875 18.765625 "/><path style=" stroke:none;fill-rule:nonzero;fill:#1d1d1b;fill-opacity:1;" d="M 23.425781 19.898438 C 23.425781 19.996094 23.375 20.046875 23.28125 20.050781 C 22.984375 20.46875 22.613281 20.804688 22.164062 21.054688 C 21.714844 21.304688 21.230469 21.449219 20.714844 21.484375 C 20.6875 21.527344 20.644531 21.546875 20.589844 21.550781 C 20.539062 21.550781 20.496094 21.53125 20.464844 21.492188 C 20.441406 21.460938 20.429688 21.429688 20.429688 21.394531 C 20.429688 21.324219 20.464844 21.277344 20.53125 21.25 C 20.601562 21.226562 20.660156 21.242188 20.707031 21.296875 C 21.191406 21.261719 21.644531 21.128906 22.070312 20.890625 C 22.492188 20.65625 22.84375 20.339844 23.117188 19.949219 C 23.113281 19.933594 23.109375 19.917969 23.109375 19.898438 C 23.109375 19.808594 23.15625 19.757812 23.25 19.746094 C 23.257812 19.746094 23.261719 19.746094 23.269531 19.746094 C 23.339844 19.746094 23.390625 19.777344 23.414062 19.84375 C 23.421875 19.863281 23.425781 19.878906 23.425781 19.898438 Z M 23.425781 19.898438 "/><path style=" stroke:none;fill-rule:nonzero;fill:#1d1d1b;fill-opacity:1;" d="M 23.226562 20.765625 C 23.226562 20.816406 23.207031 20.855469 23.167969 20.886719 C 23.132812 20.917969 23.089844 20.929688 23.039062 20.917969 C 22.734375 21.191406 22.394531 21.410156 22.015625 21.570312 C 21.640625 21.734375 21.246094 21.835938 20.835938 21.871094 C 20.425781 21.910156 20.019531 21.882812 19.617188 21.789062 C 19.21875 21.699219 18.839844 21.546875 18.492188 21.332031 C 18.476562 21.335938 18.460938 21.339844 18.445312 21.339844 C 18.351562 21.339844 18.300781 21.292969 18.289062 21.203125 C 18.289062 21.195312 18.289062 21.191406 18.289062 21.183594 C 18.289062 21.117188 18.320312 21.070312 18.382812 21.046875 C 18.402344 21.035156 18.421875 21.03125 18.445312 21.03125 C 18.550781 21.03125 18.601562 21.082031 18.601562 21.1875 C 18.9375 21.386719 19.292969 21.53125 19.671875 21.617188 C 20.054688 21.703125 20.4375 21.726562 20.824219 21.691406 C 21.214844 21.65625 21.585938 21.558594 21.941406 21.40625 C 22.300781 21.25 22.625 21.046875 22.914062 20.789062 C 22.910156 20.78125 22.910156 20.777344 22.910156 20.769531 C 22.910156 20.664062 22.964844 20.613281 23.066406 20.613281 C 23.078125 20.613281 23.085938 20.613281 23.09375 20.617188 C 23.167969 20.628906 23.210938 20.671875 23.222656 20.746094 C 23.226562 20.753906 23.226562 20.761719 23.226562 20.765625 Z M 23.226562 20.765625 "/><path style=" stroke:none;fill-rule:nonzero;fill:#1d1d1b;fill-opacity:1;" d="M 22.898438 16.378906 C 22.898438 16.390625 22.898438 16.398438 22.894531 16.410156 C 22.878906 16.488281 22.832031 16.527344 22.75 16.53125 C 22.746094 16.53125 22.742188 16.53125 22.742188 16.53125 C 22.636719 16.53125 22.582031 16.480469 22.582031 16.378906 C 22.582031 16.363281 22.585938 16.347656 22.589844 16.335938 C 22.363281 16.082031 22.097656 15.875 21.792969 15.71875 C 21.488281 15.5625 21.164062 15.464844 20.824219 15.421875 C 20.484375 15.382812 20.144531 15.402344 19.8125 15.480469 C 19.476562 15.5625 19.171875 15.699219 18.886719 15.890625 C 18.605469 16.085938 18.367188 16.320312 18.171875 16.597656 C 17.976562 16.875 17.839844 17.179688 17.757812 17.507812 C 17.675781 17.835938 17.660156 18.164062 17.703125 18.5 C 17.746094 18.835938 17.847656 19.152344 18.007812 19.449219 C 18.105469 19.464844 18.148438 19.519531 18.144531 19.613281 C 18.136719 19.707031 18.082031 19.757812 17.988281 19.757812 C 17.980469 19.757812 17.976562 19.757812 17.972656 19.757812 C 17.878906 19.746094 17.828125 19.695312 17.828125 19.601562 C 17.828125 19.582031 17.832031 19.558594 17.84375 19.539062 C 17.671875 19.222656 17.5625 18.882812 17.515625 18.523438 C 17.46875 18.167969 17.488281 17.8125 17.578125 17.460938 C 17.664062 17.113281 17.8125 16.789062 18.019531 16.492188 C 18.226562 16.195312 18.484375 15.941406 18.785156 15.738281 C 19.089844 15.535156 19.417969 15.386719 19.777344 15.300781 C 20.132812 15.21875 20.492188 15.195312 20.859375 15.242188 C 21.222656 15.285156 21.566406 15.394531 21.890625 15.5625 C 22.214844 15.730469 22.5 15.953125 22.742188 16.222656 C 22.847656 16.226562 22.898438 16.277344 22.898438 16.378906 Z M 22.898438 16.378906 "/><path style=" stroke:none;fill-rule:nonzero;fill:#1d1d1b;fill-opacity:1;" d="M 19.023438 20.984375 C 19.023438 21.082031 18.972656 21.132812 18.875 21.136719 C 18.773438 21.144531 18.71875 21.097656 18.710938 21 C 18.234375 20.714844 17.855469 20.335938 17.570312 19.867188 C 17.285156 19.402344 17.128906 18.894531 17.09375 18.347656 C 17.050781 18.320312 17.027344 18.277344 17.027344 18.226562 C 17.027344 18.175781 17.046875 18.132812 17.089844 18.101562 C 17.15625 18.050781 17.21875 18.050781 17.28125 18.101562 C 17.320312 18.132812 17.339844 18.171875 17.34375 18.21875 C 17.34375 18.269531 17.324219 18.308594 17.289062 18.339844 C 17.316406 18.855469 17.46875 19.332031 17.738281 19.773438 C 18.003906 20.214844 18.363281 20.570312 18.808594 20.835938 C 18.828125 20.832031 18.847656 20.828125 18.867188 20.828125 C 18.953125 20.828125 19.003906 20.871094 19.019531 20.953125 C 19.023438 20.964844 19.023438 20.972656 19.023438 20.984375 Z M 19.023438 20.984375 "/><path style=" stroke:none;fill-rule:nonzero;fill:#1d1d1b;fill-opacity:1;" d="M 17.40625 15.679688 C 17.40625 15.777344 17.355469 15.828125 17.257812 15.832031 C 17.023438 16.148438 16.839844 16.488281 16.707031 16.859375 C 16.578125 17.226562 16.503906 17.605469 16.484375 17.996094 C 16.46875 18.386719 16.511719 18.769531 16.613281 19.148438 C 16.710938 19.523438 16.867188 19.878906 17.074219 20.210938 C 17.167969 20.222656 17.214844 20.273438 17.214844 20.367188 C 17.214844 20.46875 17.164062 20.519531 17.058594 20.519531 C 17.054688 20.519531 17.050781 20.519531 17.050781 20.519531 C 16.949219 20.515625 16.898438 20.464844 16.898438 20.367188 C 16.898438 20.347656 16.902344 20.328125 16.910156 20.3125 C 16.691406 19.964844 16.53125 19.589844 16.425781 19.195312 C 16.324219 18.800781 16.277344 18.398438 16.296875 17.992188 C 16.3125 17.582031 16.386719 17.1875 16.527344 16.800781 C 16.664062 16.417969 16.851562 16.058594 17.097656 15.730469 C 17.082031 15.679688 17.089844 15.632812 17.121094 15.589844 C 17.152344 15.546875 17.195312 15.527344 17.25 15.527344 C 17.253906 15.527344 17.253906 15.527344 17.257812 15.527344 C 17.339844 15.53125 17.386719 15.574219 17.402344 15.652344 C 17.402344 15.660156 17.40625 15.671875 17.40625 15.679688 Z M 17.40625 15.679688 "/><path style=" stroke:none;fill-rule:nonzero;fill:#1d1d1b;fill-opacity:1;" d="M 22.480469 14.5625 C 22.480469 14.628906 22.453125 14.671875 22.394531 14.703125 C 22.371094 14.714844 22.347656 14.71875 22.324219 14.71875 C 22.234375 14.71875 22.183594 14.675781 22.167969 14.589844 C 21.644531 14.351562 21.09375 14.230469 20.515625 14.226562 C 19.941406 14.222656 19.386719 14.335938 18.859375 14.5625 C 18.839844 14.644531 18.789062 14.683594 18.707031 14.683594 C 18.683594 14.683594 18.660156 14.679688 18.636719 14.667969 C 18.578125 14.640625 18.546875 14.59375 18.546875 14.527344 C 18.546875 14.519531 18.550781 14.507812 18.550781 14.5 C 18.5625 14.449219 18.589844 14.414062 18.636719 14.390625 C 18.683594 14.367188 18.730469 14.367188 18.777344 14.390625 C 19.335938 14.148438 19.914062 14.03125 20.523438 14.039062 C 21.128906 14.042969 21.707031 14.171875 22.257812 14.425781 C 22.28125 14.414062 22.300781 14.410156 22.324219 14.410156 C 22.410156 14.410156 22.460938 14.449219 22.476562 14.53125 C 22.480469 14.542969 22.480469 14.554688 22.480469 14.5625 Z M 22.480469 14.5625 "/><path style=" stroke:none;fill-rule:nonzero;fill:#1d1d1b;fill-opacity:1;" d="M 23.914062 17.773438 C 23.914062 17.828125 23.890625 17.871094 23.84375 17.902344 C 23.796875 17.933594 23.746094 17.9375 23.691406 17.914062 C 23.640625 17.894531 23.609375 17.855469 23.601562 17.800781 C 23.589844 17.746094 23.605469 17.699219 23.648438 17.660156 C 23.605469 17.386719 23.523438 17.125 23.410156 16.875 C 23.296875 16.621094 23.148438 16.390625 22.972656 16.175781 C 22.796875 15.960938 22.59375 15.773438 22.367188 15.609375 C 22.136719 15.449219 21.894531 15.320312 21.632812 15.21875 C 21.367188 15.121094 21.097656 15.058594 20.820312 15.03125 C 20.539062 15 20.261719 15.007812 19.984375 15.050781 C 19.707031 15.09375 19.4375 15.171875 19.183594 15.285156 C 18.925781 15.398438 18.6875 15.539062 18.46875 15.714844 C 18.46875 15.820312 18.417969 15.871094 18.3125 15.871094 C 18.304688 15.871094 18.296875 15.871094 18.289062 15.867188 C 18.207031 15.855469 18.164062 15.8125 18.15625 15.730469 C 18.15625 15.726562 18.15625 15.722656 18.15625 15.714844 C 18.15625 15.664062 18.175781 15.625 18.214844 15.59375 C 18.257812 15.5625 18.300781 15.554688 18.351562 15.566406 C 18.824219 15.191406 19.359375 14.957031 19.957031 14.863281 C 20.558594 14.773438 21.140625 14.832031 21.707031 15.046875 C 22.273438 15.261719 22.746094 15.601562 23.128906 16.066406 C 23.511719 16.527344 23.746094 17.054688 23.839844 17.644531 C 23.890625 17.675781 23.914062 17.71875 23.914062 17.773438 Z M 23.914062 17.773438 "/><path style=" stroke:none;fill-rule:nonzero;fill:#1d1d1b;fill-opacity:1;" d="M 23.035156 15.371094 C 23.035156 15.378906 23.035156 15.382812 23.035156 15.390625 C 23.023438 15.464844 22.984375 15.507812 22.90625 15.523438 C 22.898438 15.523438 22.890625 15.523438 22.878906 15.523438 C 22.773438 15.523438 22.722656 15.472656 22.722656 15.371094 L 22.722656 15.367188 C 22.429688 15.140625 22.105469 14.964844 21.757812 14.835938 C 21.40625 14.707031 21.046875 14.632812 20.671875 14.613281 C 20.300781 14.59375 19.933594 14.632812 19.570312 14.726562 C 19.210938 14.816406 18.871094 14.960938 18.554688 15.15625 C 18.242188 15.351562 17.960938 15.589844 17.722656 15.871094 C 17.480469 16.152344 17.289062 16.460938 17.144531 16.800781 C 17.003906 17.136719 16.914062 17.492188 16.882812 17.855469 C 16.851562 18.222656 16.875 18.582031 16.957031 18.941406 C 17.039062 18.972656 17.070312 19.03125 17.054688 19.113281 C 17.035156 19.195312 16.984375 19.238281 16.898438 19.238281 C 16.878906 19.238281 16.863281 19.234375 16.84375 19.226562 C 16.792969 19.207031 16.761719 19.171875 16.746094 19.121094 C 16.734375 19.070312 16.742188 19.023438 16.777344 18.984375 C 16.714844 18.710938 16.683594 18.4375 16.683594 18.15625 C 16.683594 16.097656 18.386719 14.425781 20.484375 14.425781 C 21.363281 14.425781 22.144531 14.691406 22.832031 15.222656 C 22.847656 15.21875 22.863281 15.21875 22.878906 15.21875 C 22.984375 15.21875 23.035156 15.269531 23.035156 15.371094 Z M 23.035156 15.371094 "/><path style=" stroke:none;fill-rule:nonzero;fill:#1d1d1b;fill-opacity:1;" d="M 23.898438 15.132812 C 23.898438 15.144531 23.898438 15.152344 23.894531 15.164062 C 23.882812 15.234375 23.835938 15.277344 23.761719 15.289062 C 23.753906 15.289062 23.746094 15.289062 23.742188 15.289062 C 23.636719 15.289062 23.582031 15.238281 23.582031 15.132812 C 23.582031 15.125 23.585938 15.113281 23.585938 15.105469 C 22.730469 14.265625 21.695312 13.84375 20.484375 13.847656 C 18.0625 13.847656 16.097656 15.777344 16.097656 18.15625 C 16.09375 19.164062 16.414062 20.0625 17.058594 20.851562 C 17.0625 20.847656 17.066406 20.847656 17.066406 20.851562 C 17.171875 20.851562 17.226562 20.902344 17.226562 21.003906 C 17.226562 21.015625 17.222656 21.027344 17.222656 21.039062 C 17.203125 21.113281 17.15625 21.152344 17.082031 21.15625 C 17.078125 21.160156 17.074219 21.160156 17.066406 21.15625 C 16.964844 21.15625 16.910156 21.105469 16.910156 21.003906 C 16.910156 20.992188 16.914062 20.976562 16.914062 20.964844 C 16.246094 20.144531 15.910156 19.210938 15.910156 18.15625 C 15.910156 15.675781 17.960938 13.664062 20.484375 13.664062 C 21.75 13.664062 22.828125 14.101562 23.71875 14.980469 C 23.726562 14.980469 23.734375 14.980469 23.742188 14.980469 C 23.84375 14.980469 23.898438 15.03125 23.898438 15.132812 Z M 23.898438 15.132812 "/><path style=" stroke:none;fill-rule:nonzero;fill:#1d1d1b;fill-opacity:1;" d="M 24.679688 18.15625 C 24.679688 20.429688 22.800781 22.277344 20.484375 22.277344 C 20.234375 22.277344 19.988281 22.253906 19.742188 22.210938 C 19.648438 22.28125 19.570312 22.265625 19.511719 22.164062 C 19.453125 22.070312 19.476562 21.996094 19.578125 21.949219 C 19.679688 21.898438 19.75 21.925781 19.792969 22.03125 C 20.023438 22.070312 20.253906 22.089844 20.484375 22.089844 C 22.695312 22.089844 24.488281 20.328125 24.488281 18.15625 C 24.488281 17.886719 24.460938 17.621094 24.40625 17.355469 C 24.320312 17.328125 24.289062 17.269531 24.300781 17.183594 C 24.316406 17.097656 24.367188 17.054688 24.457031 17.054688 C 24.484375 17.054688 24.511719 17.0625 24.535156 17.074219 C 24.585938 17.105469 24.613281 17.148438 24.613281 17.210938 C 24.613281 17.238281 24.605469 17.265625 24.589844 17.292969 C 24.648438 17.578125 24.679688 17.867188 24.679688 18.15625 Z M 24.679688 18.15625 "/><path style=" stroke:none;fill-rule:nonzero;fill:#1d1d1b;fill-opacity:1;" d="M 24.757812 19.898438 C 24.757812 19.980469 24.71875 20.03125 24.636719 20.050781 C 24.390625 20.570312 24.054688 21.027344 23.628906 21.421875 C 23.203125 21.816406 22.71875 22.117188 22.175781 22.332031 C 21.632812 22.542969 21.070312 22.648438 20.484375 22.648438 C 19.898438 22.648438 19.335938 22.542969 18.792969 22.328125 C 18.765625 22.34375 18.738281 22.351562 18.710938 22.351562 C 18.625 22.351562 18.570312 22.3125 18.554688 22.230469 C 18.554688 22.21875 18.550781 22.210938 18.550781 22.199219 C 18.550781 22.109375 18.597656 22.058594 18.691406 22.046875 C 18.78125 22.035156 18.839844 22.074219 18.863281 22.160156 C 19.382812 22.363281 19.921875 22.464844 20.484375 22.464844 C 21.042969 22.464844 21.585938 22.363281 22.105469 22.160156 C 22.625 21.957031 23.089844 21.667969 23.5 21.292969 C 23.90625 20.914062 24.230469 20.476562 24.464844 19.976562 C 24.453125 19.953125 24.445312 19.925781 24.445312 19.898438 C 24.445312 19.816406 24.484375 19.765625 24.566406 19.75 C 24.578125 19.746094 24.589844 19.746094 24.601562 19.746094 C 24.660156 19.742188 24.707031 19.769531 24.738281 19.820312 C 24.75 19.84375 24.757812 19.871094 24.757812 19.898438 Z M 24.757812 19.898438 "/></g></svg>