<svg xmlns="http://www.w3.org/2000/svg" xmlns:xlink="http://www.w3.org/1999/xlink" viewBox="0 0 1200 1000"><defs><style>.a{fill:url(#a);}.b{fill:url(#b);}.c{fill:url(#c);}.d{fill:url(#d);}.e{fill:url(#e);}.f{fill:url(#f);}.g{fill:url(#g);}.h{fill:url(#h);}.i{fill:url(#i);}.j{fill:url(#j);}.k{fill:url(#k);}.l{fill:url(#l);}.m{fill:url(#m);}.n{fill:url(#n);}</style><linearGradient id="a" x1="524.17" y1="508.22" x2="703.8" y2="508.22" gradientUnits="userSpaceOnUse"><stop offset="0" stop-color="#ededed"/><stop offset="1" stop-color="#f6f6f6"/></linearGradient><linearGradient id="b" x1="599.18" y1="493.65" x2="628.79" y2="493.65" gradientTransform="translate(953.37 -217.33) rotate(76.72)" gradientUnits="userSpaceOnUse"><stop offset="0" stop-color="#ededed"/><stop offset="1" stop-color="#36a9e1"/></linearGradient><linearGradient id="c" x1="720.25" y1="535.78" x2="720.25" y2="751.55" gradientTransform="matrix(1, 0, 0, 1, 0, 0)" xlink:href="#b"/><linearGradient id="d" x1="724.94" y1="631.77" x2="724.94" y2="784.73" gradientTransform="matrix(1, 0, 0, 1, 0, 0)" xlink:href="#b"/><linearGradient id="e" x1="627.57" y1="705.36" x2="627.57" y2="813.41" gradientTransform="matrix(1, 0, 0, 1, 0, 0)" xlink:href="#b"/><linearGradient id="f" x1="580.78" y1="248.19" x2="580.78" y2="632.82" gradientTransform="matrix(1, 0, 0, 1, 0, 0)" xlink:href="#b"/><linearGradient id="g" x1="400.36" y1="489.76" x2="400.36" y2="749.77" gradientTransform="matrix(1, 0, 0, 1, 0, 0)" xlink:href="#b"/><linearGradient id="h" x1="302.37" y1="274.27" x2="302.37" y2="697.48" gradientTransform="matrix(1, 0, 0, 1, 0, 0)" xlink:href="#b"/><linearGradient id="i" x1="607.46" y1="148.33" x2="607.46" y2="205.91" gradientTransform="matrix(1, 0, 0, 1, 0, 0)" xlink:href="#b"/><linearGradient id="j" x1="650.64" y1="214.82" x2="650.64" y2="477.88" gradientTransform="matrix(1, 0, 0, 1, 0, 0)" xlink:href="#b"/><linearGradient id="k" x1="553.03" y1="181.17" x2="553.03" y2="588.79" gradientTransform="matrix(1, 0, 0, 1, 0, 0)" xlink:href="#b"/><linearGradient id="l" x1="556.62" y1="116.71" x2="556.62" y2="751.55" gradientTransform="matrix(1, 0, 0, 1, 0, 0)" xlink:href="#b"/><linearGradient id="m" x1="738.06" y1="403.84" x2="738.06" y2="846.24" gradientTransform="matrix(1, 0, 0, 1, 0, 0)" xlink:href="#b"/><linearGradient id="n" x1="702.28" y1="631.77" x2="702.28" y2="877.86" gradientTransform="matrix(1, 0, 0, 1, 0, 0)" xlink:href="#b"/></defs><path class="a" d="M614,403.84a89.81,89.81,0,0,0-13.34,178.63v30.14h26.67V582.47A89.81,89.81,0,0,0,614,403.84Zm13.33,154.8V532.23H600.65v26.41a66.34,66.34,0,1,1,26.67,0Z"/><circle class="b" cx="613.99" cy="493.65" r="14.8" transform="translate(-7.52 977.79) rotate(-76.72)"/><path class="c" d="M853.26,548.86A13.06,13.06,0,0,1,846,560.6c-27.54,105.13-122,183.13-235.17,185.73a13.06,13.06,0,0,1-21.19-.41,12.8,12.8,0,0,1-2.35-7.46,13.08,13.08,0,0,1,23.5-7.92c105.47-2.56,193.58-75.08,219.7-172.92A13.08,13.08,0,0,1,835,536.85a13.08,13.08,0,0,1,18.29,12Z"/><path class="d" d="M849.56,644.86a13.06,13.06,0,0,1-12.16,13A282.29,282.29,0,0,1,624.16,779.11a13.08,13.08,0,0,1-21,.63,13,13,0,0,1-.13-16,13.09,13.09,0,0,1,20.34-.62A266.18,266.18,0,0,0,824.05,649a12.88,12.88,0,0,1-.68-4.14,13.08,13.08,0,0,1,11.62-13,10.32,10.32,0,0,1,1.48-.09,13.06,13.06,0,0,1,12.22,8.42A12.67,12.67,0,0,1,849.56,644.86Z"/><path class="e" d="M832.9,718.45a13.1,13.1,0,0,1-13.09,13.09,13.59,13.59,0,0,1-2.31-.21,316.24,316.24,0,0,1-378.43,35.08,12.59,12.59,0,0,1-3.74.55,13.07,13.07,0,0,1-13-11.66,9.5,9.5,0,0,1-.09-1.42,13.09,13.09,0,1,1,26.17,0,.68.68,0,0,1,0,.2,300.85,300.85,0,0,0,358.45-33.87,10.28,10.28,0,0,1-.13-1.76,13.09,13.09,0,0,1,13.1-13.09,11.27,11.27,0,0,1,2.11.19,13,13,0,0,1,10.81,11A11.2,11.2,0,0,1,832.9,718.45Z"/><path class="f" d="M805.65,346.59a13.37,13.37,0,0,1-.27,2.7,13.06,13.06,0,0,1-12,10.33,4.91,4.91,0,0,1-.85.05,13.09,13.09,0,0,1-13.09-13.08A12.79,12.79,0,0,1,780,343a232.81,232.81,0,0,0-175-79c-128.87,0-233.32,104.47-233.32,233.32A232.4,232.4,0,0,0,398.92,606.8a13.05,13.05,0,0,1,11.29,12.94,13.09,13.09,0,0,1-13.09,13.08,8.05,8.05,0,0,1-1.2-.07,13.11,13.11,0,0,1-10.79-18.29A247.91,247.91,0,0,1,355.9,497.28c0-137.57,111.52-249.09,249.09-249.09A248.57,248.57,0,0,1,792.68,333.5,13.08,13.08,0,0,1,805.65,346.59Z"/><path class="g" d="M483.32,736.68a13.09,13.09,0,0,1-26.1,1.39l-.05,0A282.35,282.35,0,0,1,323,513.57a13.08,13.08,0,0,1-.42-21.11,13,13,0,0,1,16,.11,13.09,13.09,0,0,1,.4,20.24h0A266.31,266.31,0,0,0,465.63,724.43a12.55,12.55,0,0,1,4.61-.85,13.08,13.08,0,0,1,12.86,10.7A12.68,12.68,0,0,1,483.32,736.68Z"/><path class="h" d="M348.7,287.36a13.09,13.09,0,0,1-12.33,13.05,333.21,333.21,0,0,0-15.3,371,13.08,13.08,0,0,1-1.34,26.1,3.18,3.18,0,0,1-.61,0,13,13,0,0,1-12.47-13.05,12.3,12.3,0,0,1,.87-4.63,349.08,349.08,0,0,1,15.66-388.29,13.07,13.07,0,0,1,12.43-17.2,7.57,7.57,0,0,1,.95.06,13,13,0,0,1,11.9,10.58A11.7,11.7,0,0,1,348.7,287.36Z"/><path class="i" d="M771,192.83a13.07,13.07,0,0,1-7.2,11.68,12.89,12.89,0,0,1-5.89,1.4,13.09,13.09,0,0,1-12.88-10.83,334,334,0,0,0-275.32-2.22A13.07,13.07,0,0,1,457,203.1a12.8,12.8,0,0,1-5.7-1.31,13.06,13.06,0,0,1-7.4-11.78,11.73,11.73,0,0,1,.24-2.46A13.11,13.11,0,0,1,463,178.41a349.89,349.89,0,0,1,289.43,2.53,12.75,12.75,0,0,1,5.48-1.22,13.13,13.13,0,0,1,12.83,10.42A13.94,13.94,0,0,1,771,192.83Z"/><path class="j" d="M890.15,464.77a13.1,13.1,0,1,1-22-9.57C848,328,737.83,230.83,605,230.83a265.35,265.35,0,0,0-167.7,59.38.55.55,0,0,1,0,.18,13.08,13.08,0,0,1-13.09,13.09,11.06,11.06,0,0,1-1.92-.17,13,13,0,0,1-11.09-11.55,10.29,10.29,0,0,1-.08-1.37,13.09,13.09,0,0,1,16.18-12.71A281.27,281.27,0,0,1,605,214.82c141.21,0,258.23,103.61,279.14,239A13,13,0,0,1,890.15,464.77Z"/><path class="k" d="M817.2,261.16a9.93,9.93,0,0,1-.13,1.73,13,13,0,0,1-10.58,11.16,12.44,12.44,0,0,1-2.37.22A13.09,13.09,0,0,1,791,261.16V261a299.37,299.37,0,0,0-186-64.47c-166.09,0-300.73,134.64-300.73,300.73a300.76,300.76,0,0,0,7.35,66.32,13.08,13.08,0,0,1-5,25.19,12.73,12.73,0,0,1-4.59-.85,13.09,13.09,0,0,1-5.43-20.68,317.05,317.05,0,0,1-7.77-70c0-174.59,141.54-316.11,316.13-316.11a314.75,314.75,0,0,1,195.26,67.5,12.68,12.68,0,0,1,3.87-.59A13.09,13.09,0,0,1,817.2,261.16Z"/><path class="l" d="M888.82,241.14a13.08,13.08,0,0,1-11.37,13,9.67,9.67,0,0,1-1.72.13,13.07,13.07,0,0,1-13.09-13.08,12.84,12.84,0,0,1,.23-2.43A364,364,0,0,0,605,132.08c-201.7,0-365.2,163.51-365.2,365.2a363.7,363.7,0,0,0,80,228.15,5.77,5.77,0,0,1,.85-.06,13.1,13.1,0,0,1,13.1,13.09,12.32,12.32,0,0,1-.35,3,13.05,13.05,0,0,1-11.64,10,10.32,10.32,0,0,1-1.11.06,13.09,13.09,0,0,1-13.09-13.09,12.31,12.31,0,0,1,.41-3.22,378.9,378.9,0,0,1-83.55-238c0-210.18,170.38-380.57,380.56-380.57A379.33,379.33,0,0,1,874.07,228.18h0a10.11,10.11,0,0,1,1.65-.13A13.1,13.1,0,0,1,888.82,241.14Z"/><path class="m" d="M953.94,497.28c0,192.72-156.23,349-349,349a351.39,351.39,0,0,1-61.88-5.46,12.91,12.91,0,0,1-7.83,2.61,13,13,0,0,1-11.37-6.62h0a12.88,12.88,0,0,1-1.71-6.46,13.09,13.09,0,0,1,25.21-5,335.37,335.37,0,0,0,57.59,5c183.91,0,333-149.1,333-333a333.16,333.16,0,0,0-7-68,13.08,13.08,0,1,1,10.73-23.71v0a13,13,0,0,1,6.54,11.31,12.86,12.86,0,0,1-2.09,7.05v0A350.3,350.3,0,0,1,953.94,497.28Z"/><path class="n" d="M960.49,644.86a13.09,13.09,0,0,1-10.26,12.77C889.72,787.7,757.88,877.86,605,877.86a379.14,379.14,0,0,1-140.92-27,12.93,12.93,0,0,1-6.92,2,13.08,13.08,0,0,1-12.83-10.52,13.49,13.49,0,0,1-.26-2.57,13,13,0,0,1,6.69-11.4,12.81,12.81,0,0,1,6.4-1.69,13.09,13.09,0,0,1,12.7,9.92A363.77,363.77,0,0,0,605,862.49c146.6,0,273-86.36,331.14-211a12.83,12.83,0,0,1-1.83-6.64,13.07,13.07,0,0,1,10.19-12.76,12.49,12.49,0,0,1,2.89-.33,13,13,0,0,1,11.24,6.38A12.83,12.83,0,0,1,960.49,644.86Z"/></svg>